<?xml version="1.0" encoding="UTF-8" standalone="no"?>
<!-- Created with Inkscape (http://www.inkscape.org/) -->

<svg
   width="198.52612mm"
   height="195.5531mm"
   viewBox="0 0 198.52612 195.5531"
   version="1.1"
   id="svg5"
   xml:space="preserve"
   xmlns:inkscape="http://www.inkscape.org/namespaces/inkscape"
   xmlns:sodipodi="http://sodipodi.sourceforge.net/DTD/sodipodi-0.dtd"
   xmlns="http://www.w3.org/2000/svg"
   xmlns:svg="http://www.w3.org/2000/svg"><sodipodi:namedview
     id="namedview7"
     pagecolor="#ffffff"
     bordercolor="#000000"
     borderopacity="0.25"
     inkscape:showpageshadow="2"
     inkscape:pageopacity="0.0"
     inkscape:pagecheckerboard="0"
     inkscape:deskcolor="#d1d1d1"
     inkscape:document-units="mm"
     showgrid="false"
     inkscape:zoom="0.60316882"
     inkscape:cx="796.62606"
     inkscape:cy="1926.4922"
     inkscape:window-width="1512"
     inkscape:window-height="916"
     inkscape:window-x="0"
     inkscape:window-y="38"
     inkscape:window-maximized="1"
     inkscape:current-layer="layer1" /><defs
     id="defs2" /><g
     inkscape:label="Capa 1"
     inkscape:groupmode="layer"
     id="layer1"
     transform="translate(-108.78943,-392.36048)"><path
       style="fill:#000000;stroke:none;stroke-width:0.264583"
       d="m 202.85577,392.64301 c -16.15387,1.47108 -31.54733,5.35675 -45.50833,13.93798 -12.18883,7.49194 -22.81581,17.04181 -31.04753,28.80492 -6.54315,9.35011 -12.0306,20.03928 -14.60553,31.22083 -3.53483,15.35007 -4.04733,31.41636 -0.40534,46.83125 7.81579,33.08006 34.08733,59.4569 66.16673,69.82513 13.22467,4.27434 27.22563,5.41046 41.01042,4.18809 13.7623,-1.22026 27.70557,-5.70204 39.68749,-12.55633 12.36689,-7.07443 23.00976,-16.62272 31.42589,-28.11939 5.93804,-8.11159 10.61826,-17.31645 13.40008,-26.9875 4.67308,-16.24594 5.81846,-33.43169 2.20584,-50.00625 -7.43532,-34.11246 -34.37096,-62.80546 -67.6693,-72.9054 -10.96381,-3.32555 -23.18332,-5.27844 -34.66042,-4.23333 m -1.05833,6.06081 c 9.4361,-0.82709 19.1262,0.32967 28.31041,2.43125 9.72291,2.22515 19.08122,6.20739 27.51667,11.51467 23.79027,14.96774 40.73101,41.15461 43.29588,69.30284 1.28482,14.10229 -1.03134,28.55489 -5.82956,41.80416 -2.76119,7.62476 -6.92071,14.70025 -11.77131,21.16667 -7.8359,10.44628 -17.9914,18.93623 -29.39918,25.25183 -11.77025,6.51589 -25.20738,10.63651 -38.62916,11.71734 -36.70538,2.95592 -74.52413,-17.62496 -91.06429,-50.72751 -9.75545,-19.52386 -11.76973,-42.68681 -6.45848,-63.76458 2.57016,-10.19942 7.48612,-20.01043 13.54137,-28.57499 7.96529,-11.2657 18.16974,-20.53167 30.0064,-27.5672 12.44468,-7.39696 26.11331,-11.29533 40.48125,-12.55448 m -46.0375,44.09043 h 104.51041 c -1.50177,-1.61581 -3.71052,-3.74994 -5.82083,-4.48866 -2.4556,-0.8599 -5.88804,-0.27384 -8.46667,-0.27384 h -17.99166 c -2.17594,0 -4.96385,0.4691 -7.06888,-0.0968 -1.15041,-0.3093 -1.49569,-1.53273 -1.79705,-2.55006 -0.58843,-1.98622 -0.74215,-4.37991 -2.17514,-5.99122 -1.31524,-1.47849 -3.02604,-1.39674 -4.83393,-1.50283 -3.19591,-0.18759 -6.59977,-0.48472 -9.78959,-0.0871 -3.47768,0.43392 -4.29471,2.98027 -4.96887,5.99466 -0.39026,1.74572 -0.55272,4.16507 -2.72071,4.4413 -2.22382,0.28337 -4.61724,-0.20743 -6.8625,-0.20796 h -16.66875 c -3.03662,0 -6.89239,-0.48181 -9.78958,0.57414 -2.0537,0.74824 -4.10131,2.59847 -5.55625,4.18836 m 59.79583,-4.49792 h -14.55208 c -0.10769,-1.456 0.0865,-4.94639 1.524,-5.77453 1.5105,-0.86969 4.45452,-0.31089 6.14891,-0.31089 1.36472,0 3.83752,-0.46143 4.98449,0.43048 1.33429,1.03796 1.54887,4.09945 1.89468,5.65494 m -62.70625,6.35 -0.26458,5.29167 h 110.86041 v -5.29167 l -22.48958,0.26458 H 199.1516 168.72452 l -15.875,-0.26458 m -7.9375,8.99583 v 10.31875 h 9.78959 l -0.43048,6.78101 -2.74479,2.37913 -5.55572,3.624 -2.74479,2.18069 -0.43047,4.08517 v 9.26042 h 11.90625 v 45.77291 h 13.49375 v 6.35 c -2.7e-4,2.1127 0.18626,3.87932 -1.85209,5.02708 v -6.87916 c -1.15993,0.50085 -2.11825,1.13003 -2.89957,2.14709 -0.71014,0.92446 -1.21682,2.02089 -1.51765,3.14457 -2.23652,8.35131 10.1227,12.80795 14.13431,5.29035 0.69744,-1.30704 0.89297,-2.76807 0.84587,-4.23201 -0.0495,-1.53617 -0.51303,-2.94429 -1.39171,-4.20979 -0.63129,-0.90884 -1.55178,-1.65629 -1.98384,-2.69293 -0.49715,-1.1938 -0.30824,-2.6797 -0.30824,-3.9452 h 72.49583 c 0,3.429 1.22317,9.12548 -1.85209,11.37708 v -6.87916 c -4.36774,1.44727 -5.84385,7.05591 -3.50731,10.84262 1.65973,2.68976 4.9149,4.03066 8.00523,3.58352 1.13215,-0.16404 2.22753,-0.56092 3.16362,-1.22582 1.03691,-0.73633 1.87246,-1.74095 2.4302,-2.8821 0.68183,-1.39436 0.83661,-2.96466 0.70803,-4.49739 -0.23469,-2.79506 -2.27727,-3.90551 -3.49065,-6.15738 -0.65379,-1.21312 -0.42995,-2.83025 -0.42995,-4.16137 h 10.58333 l 0.26459,-45.77291 h 11.90625 v -9.26042 l -0.43048,-4.04416 -2.74479,-2.20609 -5.55598,-3.67321 -3.00911,-2.55799 -0.43048,-6.30397 h 9.525 l 0.0238,-6.08541 -0.0238,-4.7625 -14.55208,0.26458 h -26.9875 -84.40208 m 3.175,5.82083 v -2.91041 h 92.075 21.43125 c 1.63539,0 3.37158,-0.16299 4.99454,0.0561 0.84508,0.11404 1.53617,0.56303 1.47161,1.50786 -0.0656,0.96255 -0.88794,1.24169 -1.72138,1.31392 -1.56422,0.136 -3.17553,0.0325 -4.74477,0.0325 h -21.69583 -91.81042 m 73.81875,19.05 v 30.42709 h -19.84375 l -5.02629,-0.002 -2.33574,-0.42836 -0.57097,-2.21747 -0.005,-5.55414 v -22.225 h 27.78125 m -67.20416,2.64584 c -0.28126,2.97524 -4.38309,4.79478 -6.87917,5.82083 v -5.82083 h 6.87917 m 113.50624,0 v 5.82083 c -2.40003,-1.26841 -6.17458,-2.87179 -6.61458,-5.82083 h 6.61458 m -68.52708,3.43958 v 18.25625 h 16.66875 v -18.25625 z"
       id="path341"
       inkscape:label="garbage"
       inkscape:export-filename="path341.svg"
       inkscape:export-xdpi="6.3971434"
       inkscape:export-ydpi="6.3971434" /></g></svg>
