<?xml version="1.0" encoding="UTF-8" standalone="no"?>
<!-- Created with Inkscape (http://www.inkscape.org/) -->

<svg
   width="349.13306"
   height="346.26657"
   viewBox="0 0 92.374782 91.616358"
   version="1.1"
   id="svg551"
   xml:space="preserve"
   xmlns:inkscape="http://www.inkscape.org/namespaces/inkscape"
   xmlns:sodipodi="http://sodipodi.sourceforge.net/DTD/sodipodi-0.dtd"
   xmlns="http://www.w3.org/2000/svg"
   xmlns:svg="http://www.w3.org/2000/svg"><sodipodi:namedview
     id="namedview553"
     pagecolor="#ffffff"
     bordercolor="#000000"
     borderopacity="0.25"
     inkscape:showpageshadow="2"
     inkscape:pageopacity="0.0"
     inkscape:pagecheckerboard="0"
     inkscape:deskcolor="#d1d1d1"
     inkscape:document-units="mm"
     showgrid="false" /><defs
     id="defs548" /><g
     inkscape:label="Capa 1"
     inkscape:groupmode="layer"
     id="layer1"
     transform="translate(-90.509584,-78.06569)"><path
       style="fill:#1a2b3a;stroke:none;stroke-width:0.264583"
       d="m 131.69874,78.359237 c -5.65388,0.61595 -11.23103,2.23335 -16.31368,4.823625 -14.83148,7.55966 -24.430302,23.142558 -24.861042,39.745688 -0.19685,7.59249 1.62772,15.15613 4.959354,21.96042 2.47782,5.06095 5.944918,9.42631 10.113168,13.19292 4.36933,3.94811 9.51468,6.99796 15.08019,8.93286 6.92864,2.40903 14.40603,3.13029 21.69583,2.38919 6.00525,-0.6104 11.57446,-2.37332 16.93334,-5.14086 4.27989,-2.21006 8.04227,-5.32209 11.35855,-8.79078 14.13748,-14.78756 16.16525,-39.19325 5.26204,-56.356238 -5.68907,-8.95562 -14.25945,-15.45272 -24.29351,-18.785155 -6.3246,-2.10052 -13.30484,-2.69398 -19.93424,-1.97167 m 13.31966,82.933903 v -23.54792 h 17.99166 V 123.7223 c 7.9e-4,-1.76 0.30638,-3.54012 0.21431,-5.29166 -0.27834,-5.29193 -2.6027,-9.87134 -7.09347,-12.83944 -1.38245,-0.9136 -2.92206,-1.49622 -4.49792,-1.97723 v -0.26458 h 6.61458 v -7.143748 h -8.46666 c -1.01177,7.9e-4 -2.63552,-0.24342 -3.3192,0.70564 -1.05225,1.46077 -0.38497,4.964108 -0.38497,6.702688 h -17.4625 c -4.56988,0 -8.89397,-0.14287 -12.69973,2.82946 -5.74411,4.48654 -5.8211,10.91961 -5.8211,17.54346 v 13.75833 l 19.05,-0.26458 v 23.8125 c -3.58617,-0.42149 -7.11941,-1.88728 -10.31875,-3.50997 -18.51184,-9.38874 -25.660878,-32.26408 -16.71029,-50.72962 4.60004,-9.490858 13.73558,-17.031748 23.85404,-19.983178 4.51088,-1.31551 9.08817,-1.56131 13.75833,-1.43827 4.18359,0.11006 8.31665,1.28905 12.17083,2.84956 3.67983,1.49013 6.97468,3.66236 10.05417,6.14627 13.17915,10.630688 16.81321,29.777258 10.07797,44.969368 -2.29182,5.16943 -5.85205,9.62793 -10.07824,13.34294 -4.49659,3.95288 -10.80849,7.86209 -16.93306,8.3529 m 12.7,-29.36875 -8.46667,0.26458 H 133.9059 v -9.78958 c 0,-5.77374 -0.2294,-10.57804 -5.02709,-14.55209 2.58234,-0.74586 5.79147,-0.26458 8.46667,-0.26458 6.90245,0 16.06021,-1.52585 19.38734,6.35 2.38469,5.64542 -0.001,12.10866 0.98558,17.99167 m -29.36875,0.26458 h -12.7 v -11.1125 c 0,-2.3532 -0.18627,-4.72122 0.93451,-6.87811 2.62387,-5.05036 9.14638,-4.22169 11.23262,0.79269 0.7866,1.89072 0.53287,4.08253 0.53287,6.08542 v 11.1125 m 8.20208,-14.55208 2.6e-4,6.08541 c 0.001,1.11919 -0.0984,2.38099 0.46805,3.39408 1.0422,1.86346 3.77852,1.97167 5.1689,0.45323 0.78158,-0.85328 0.91281,-1.9513 0.97737,-3.05356 h 7.67292 v -6.87916 h -14.2875 m 2.91042,19.84375 v 24.87083 h -4.7625 v -24.60625 l 4.7625,-0.26458"
       id="path669"
       sodipodi:nodetypes="cccccccccccccccccccccccccscscccccccccscccccscsccccscsscccccccccccccc"
       inkscape:export-filename="mail.svg"
       inkscape:export-xdpi="13.748342"
       inkscape:export-ydpi="13.748342"
       inkscape:label="mailbox" /></g></svg>
